<svg width="131" height="80" viewBox="0 0 131 80" fill="none" xmlns="http://www.w3.org/2000/svg">
<rect y="0.90099" width="131" height="78.3168" fill="#1E1E1E"/>
<path d="M2.125 41.0891V12.7691H3.565V41.0891H2.125ZM7.885 41.0891V12.7691H12.205V41.0891H7.885ZM13.645 41.0891V12.7691H16.525V41.0891H13.645ZM10.045 56.5931C8.765 56.5931 7.789 56.0971 7.117 55.1051C6.413 54.1131 6.061 52.7051 6.061 50.8811C6.061 49.1211 6.413 47.7291 7.117 46.7051C7.821 45.7131 8.797 45.2171 10.045 45.2171C11.293 45.2171 12.269 45.7131 12.973 46.7051C13.677 47.7291 14.029 49.1211 14.029 50.8811C14.029 52.7051 13.677 54.1131 12.973 55.1051C12.301 56.0971 11.325 56.5931 10.045 56.5931ZM10.045 55.4891C10.909 55.4891 11.565 55.1051 12.013 54.3371C12.493 53.5371 12.733 52.3851 12.733 50.8811C12.733 49.4731 12.493 48.3531 12.013 47.5211C11.533 46.7211 10.877 46.3211 10.045 46.3211C9.213 46.3211 8.557 46.7211 8.077 47.5211C7.597 48.3531 7.357 49.4731 7.357 50.8811C7.357 52.3851 7.581 53.5371 8.029 54.3371C8.509 55.1051 9.181 55.4891 10.045 55.4891ZM17.9688 41.0891V12.7691H19.4088V41.0891H17.9688ZM20.8488 41.0891V12.7691H22.2888V41.0891H20.8488ZM25.1688 41.0891V12.7691H30.9288V41.0891H25.1688ZM22.4808 48.2411H23.7768V49.8731C23.9688 49.2651 24.2888 48.8171 24.7368 48.5291C25.1848 48.2091 25.6968 48.0491 26.2728 48.0491C26.8808 48.0491 27.4568 48.2091 28.0008 48.5291C28.5128 48.8491 28.9128 49.3291 29.2008 49.9691C29.5208 50.5771 29.6808 51.3451 29.6808 52.2731C29.6808 53.1691 29.5208 53.9531 29.2008 54.6251C28.8808 55.2971 28.4648 55.7931 27.9528 56.1131C27.4088 56.4331 26.8328 56.5931 26.2248 56.5931C25.7448 56.5931 25.2968 56.4811 24.8808 56.2571C24.4328 56.0331 24.0808 55.7291 23.8248 55.3451V59.3771H22.4808V48.2411ZM26.0328 55.4891C26.6728 55.4891 27.2168 55.2331 27.6648 54.7211C28.1128 54.2411 28.3368 53.4411 28.3368 52.3211C28.3368 51.2971 28.1448 50.5131 27.7608 49.9691C27.3768 49.4251 26.8168 49.1531 26.0808 49.1531C25.4088 49.1531 24.8648 49.4411 24.4488 50.0171C24.0008 50.5931 23.7768 51.4571 23.7768 52.6091C23.8088 53.5371 24.0168 54.2411 24.4008 54.7211C24.8168 55.2331 25.3608 55.4891 26.0328 55.4891ZM33.8125 41.0891V12.7691H35.2525V41.0891H33.8125ZM38.1325 41.0891V12.7691H43.8925V41.0891H38.1325ZM45.3325 41.0891V12.7691H46.7725V41.0891H45.3325ZM45.1885 55.6331C44.4205 56.2411 43.5565 56.5451 42.5965 56.5451C41.7005 56.5451 41.0605 56.2731 40.6765 55.7291C40.2925 55.1531 40.1005 54.2571 40.1005 53.0411C40.1005 52.8171 40.1165 52.4651 40.1485 51.9851L40.3405 49.2971H38.5165V48.2411H40.3885L40.5325 46.0811L41.9245 45.8411H42.1165V45.9371C42.0525 46.0331 42.0045 46.1291 41.9725 46.2251C41.9085 46.3211 41.8765 46.4491 41.8765 46.6091L41.6845 48.2411H44.3725V49.2971H41.5885L41.4445 52.0811C41.4125 52.5611 41.3965 52.8651 41.3965 52.9931C41.3965 53.9531 41.5085 54.6091 41.7325 54.9611C41.9565 55.2811 42.3085 55.4411 42.7885 55.4411C43.1405 55.4411 43.4765 55.3771 43.7965 55.2491C44.0845 55.1211 44.4205 54.9131 44.8045 54.6251L45.1885 55.6331ZM49.6562 41.0891V12.7691H51.0963V41.0891H49.6562ZM56.8563 41.0891V12.7691H59.7363V41.0891H56.8563ZM61.1763 41.0891V12.7691H62.6163V41.0891H61.1763ZM54.8883 55.3451H57.0003V49.2971H54.9843V48.2411H58.2483V55.3451H60.1683V56.4011H54.8883V55.3451ZM57.5763 46.5131C57.3203 46.5131 57.0963 46.4331 56.9043 46.2731C56.7443 46.0811 56.6643 45.8571 56.6643 45.6011C56.6643 45.3451 56.7443 45.1371 56.9043 44.9771C57.0643 44.7851 57.2883 44.6891 57.5763 44.6891C57.8003 44.6891 58.0083 44.7851 58.2003 44.9771C58.3923 45.1691 58.4883 45.3771 58.4883 45.6011C58.4883 45.8571 58.3923 46.0811 58.2003 46.2731C58.0083 46.4331 57.8003 46.5131 57.5763 46.5131ZM65.5 41.0891V12.7691H68.38V41.0891H65.5ZM69.82 41.0891V12.7691H71.26V41.0891H69.82ZM75.58 41.0891V12.7691H77.02V41.0891H75.58ZM73.9 56.5931C73.004 56.5931 72.236 56.3531 71.596 55.8731C70.956 55.4251 70.46 54.7691 70.108 53.9051C69.756 53.0731 69.58 52.0971 69.58 50.9771C69.58 49.5051 69.804 48.3371 70.252 47.4731C70.7 46.6091 71.244 46.0011 71.884 45.6491C72.524 45.3291 73.164 45.1691 73.804 45.1691C74.476 45.1691 75.116 45.3451 75.724 45.6971C76.364 46.0171 76.828 46.4651 77.116 47.0411L76.252 47.7131L76.108 47.8571L76.06 47.7611C76.06 47.6651 76.044 47.5691 76.012 47.4731C75.948 47.4091 75.852 47.2971 75.724 47.1371C75.436 46.8171 75.148 46.5931 74.86 46.4651C74.572 46.3371 74.22 46.2731 73.804 46.2731C72.94 46.2731 72.22 46.6091 71.644 47.2811C71.1 47.9851 70.828 49.1211 70.828 50.6891C70.828 52.2251 71.1 53.4091 71.644 54.2411C72.188 55.0731 72.94 55.4891 73.9 55.4891C74.252 55.4891 74.62 55.4251 75.004 55.2971C75.42 55.2011 75.756 55.0411 76.012 54.8171V52.1771H73.996V51.0731H77.164V55.4411C76.108 56.2091 75.02 56.5931 73.9 56.5931ZM81.3438 41.0891V12.7691H82.7838V41.0891H81.3438ZM85.6638 41.0891V12.7691H87.1038V41.0891H85.6638ZM89.9838 41.0891V12.7691H95.7438V41.0891H89.9838ZM90.7998 48.0491C91.6638 48.0491 92.3838 48.3531 92.9598 48.9611L92.3838 49.9211L92.3358 50.1131L92.1918 50.0171C92.1598 49.8891 92.1278 49.7931 92.0958 49.7291C92.0318 49.6331 91.9198 49.5371 91.7598 49.4411C91.4718 49.2491 91.1198 49.1531 90.7038 49.1531C90.2878 49.1531 89.8878 49.2651 89.5038 49.4891C89.1198 49.6811 88.8158 50.0011 88.5918 50.4491C88.3358 50.8971 88.2078 51.4411 88.2078 52.0811V56.4011H86.9118V48.2411H88.2558L88.2078 49.7291C88.4318 49.2171 88.7838 48.8011 89.2638 48.4811C89.7438 48.1931 90.2558 48.0491 90.7998 48.0491ZM97.1875 41.0891V12.7691H98.6275V41.0891H97.1875ZM101.508 41.0891V12.7691H102.948V41.0891H101.508ZM104.388 41.0891V12.7691H107.268V41.0891H104.388ZM105.012 48.0491C106.164 48.0491 107.044 48.3531 107.652 48.9611C108.26 49.5691 108.564 50.6091 108.564 52.0811V56.4011H107.172V55.1531C106.692 56.1131 105.764 56.5931 104.388 56.5931C103.492 56.5931 102.788 56.3851 102.276 55.9691C101.764 55.5531 101.508 55.0091 101.508 54.3371C101.508 53.7611 101.7 53.2651 102.084 52.8491C102.436 52.4331 102.932 52.0971 103.572 51.8411C104.18 51.6171 104.868 51.5051 105.636 51.5051C106.308 51.5051 106.916 51.5371 107.46 51.6011C107.396 50.7051 107.156 50.0651 106.74 49.6811C106.324 49.2971 105.716 49.1051 104.916 49.1051C104.5 49.1051 104.116 49.1851 103.764 49.3451C103.38 49.5051 103.028 49.7291 102.708 50.0171L102.084 49.2011C102.852 48.4331 103.828 48.0491 105.012 48.0491ZM104.532 55.6331C105.428 55.6331 106.132 55.3611 106.644 54.8171C107.156 54.3051 107.428 53.5691 107.46 52.6091C106.916 52.5131 106.34 52.4651 105.732 52.4651C104.836 52.4651 104.116 52.6251 103.572 52.9451C103.06 53.2331 102.804 53.6811 102.804 54.2891C102.804 55.1851 103.38 55.6331 104.532 55.6331ZM113.031 41.0891V12.7691H114.471V41.0891H113.031ZM115.911 41.0891V12.7691H120.231V41.0891H115.911ZM121.671 41.0891V12.7691H124.551V41.0891H121.671ZM117.207 45.2651H118.215L120.951 50.7371L123.735 45.2651H124.695V56.4011H123.495V48.0011L121.095 52.5131H120.615L118.359 48.0491V56.4011H117.207V45.2651Z" fill="#FFD900"/>
</svg>
